<svg width="45" height="32" viewBox="0 0 45 32" fill="none" xmlns="http://www.w3.org/2000/svg">
<path d="M25.5676 7.86495C26.3494 7.0812 26.8332 5.99969 26.8332 4.80479C26.8332 2.41178 24.8931 0.47168 22.5 0.47168C20.9872 0.47168 19.657 1.24836 18.882 2.42334C18.6761 2.62956 1.42681 23.8898 1.26556 24.1342C0.483742 24.9179 0 25.9998 0 27.194C0 29.5874 1.9401 31.5275 4.33311 31.5275C5.846 31.5275 7.17613 30.7511 7.95121 29.5758C8.15711 29.3696 25.4064 8.10907 25.5676 7.86495Z" fill="white"/>
<path d="M35.5483 17.9539C36.3324 17.1695 36.8171 16.0867 36.8171 14.8902C36.8171 12.4972 34.877 10.5571 32.484 10.5571C30.9704 10.5571 29.6397 11.3345 28.8646 12.5104C28.6571 12.7182 19.5974 23.8857 19.4352 24.1317C18.6511 24.9161 18.1664 25.9989 18.1664 27.1951C18.1664 29.5884 20.1065 31.5286 22.4995 31.5286C24.013 31.5286 25.3438 30.7512 26.1186 29.5753C26.3261 29.3678 35.3861 18.2 35.5483 17.9539Z" fill="white"/>
<path d="M45 4.80479C45 7.19812 43.0599 9.1379 40.6668 9.1379C38.2735 9.1379 36.3337 7.19812 36.3337 4.80479C36.3337 2.41178 38.2735 0.47168 40.6668 0.47168C43.0599 0.47168 45 2.41178 45 4.80479Z" fill="white"/>
<path d="M8.66622 4.80479C8.66622 7.19812 6.72612 9.1379 4.33311 9.1379C1.9401 9.1379 0 7.19812 0 4.80479C0 2.41178 1.9401 0.47168 4.33311 0.47168C6.72612 0.47168 8.66622 2.41178 8.66622 4.80479Z" fill="white"/>
</svg>
